<?xml version="1.0" encoding="utf-8"?><!-- Generator: Adobe Illustrator 19.1.1, SVG Export Plug-In . SVG Version: 6.00 Build 0)  --><svg xmlns="http://www.w3.org/2000/svg" xmlns:xlink="http://www.w3.org/1999/xlink" version="1.1" x="0px" y="0px" viewBox="0 0 48 48" enable-background="new 0 0 48 48" xml:space="preserve" width="48" height="48">
<path fill="#EFEBE9" d="M44,24c0-3.9-1.1-7.4-3-10.5V10h-2.7C34.6,6.3,29.6,4,24,4S13.4,6.3,9.7,10H7v3.5C5.1,16.6,4,20.1,4,24  s1.1,7.4,3,10.5V44h34v-9.5C42.9,31.4,44,27.9,44,24z"/>
<path fill="#6D4C41" d="M27.4,23h-6.9l-10.4-6.7c-0.7-0.5-0.9-1.4-0.4-2.1c0.5-0.7,1.4-0.9,2.1-0.4l9.6,6.3h5.1l9.6-6.3  c0.7-0.5,1.6-0.3,2.1,0.4c0.5,0.7,0.3,1.6-0.4,2.1L27.4,23z M28,41V28h-8v13c0,1.1,0.9,2,2,2s2-0.9,2-2c0,1.1,0.9,2,2,2  S28,42.1,28,41z"/>
<polygon fill="#4E342E" points="23,32 24,41 25,32 "/>
<path fill="#8D6E63" d="M42,45H6V9h36V45z M8,43h32V11H8V43z M24,19c2.2,0,4-1.8,4-4s-1.8-4-4-4s-4,1.8-4,4S21.8,19,24,19z M37.5,20  h-27C9.7,20,9,20.7,9,21.5S9.7,23,10.5,23H20v6.4l-5.7,8.5c-0.6,0.9-0.4,2.2,0.6,2.8c0.9,0.6,2.2,0.4,2.8-0.6l5.4-8.1h1.9l5.4,8.1  c0.4,0.6,1,0.9,1.7,0.9c0.4,0,0.8-0.1,1.1-0.3c0.9-0.6,1.2-1.9,0.6-2.8L28,29.4V23h9.5c0.8,0,1.5-0.7,1.5-1.5S38.3,20,37.5,20z"/>
<path fill="#A1887F" d="M24,45C12.4,45,3,35.6,3,24C3,12.4,12.4,3,24,3c11.6,0,21,9.4,21,21C45,35.6,35.6,45,24,45z M24,5  C13.5,5,5,13.5,5,24s8.5,19,19,19s19-8.5,19-19S34.5,5,24,5z"/>
</svg>