<?xml version="1.0" encoding="utf-8"?><!-- Generator: Adobe Illustrator 19.1.1, SVG Export Plug-In . SVG Version: 6.00 Build 0)  --><svg xmlns="http://www.w3.org/2000/svg" xmlns:xlink="http://www.w3.org/1999/xlink" version="1.1" x="0px" y="0px" viewBox="0 0 48 48" enable-background="new 0 0 48 48" xml:space="preserve" width="48" height="48">
<path fill="#4E342E" d="M22,27c0,0-10.3,2.4-13,6S6,44,6,44h36c0-9.8-1.7-10.8-10-17H22z"/>
<g>
	<path fill="#FBC02D" d="M37.6,11.5c0.4-0.7,1.6-0.7,2.1,0.3c0.2,0.3,1.3,7.8,1.3,9.2s0.1,2.6-1.2,5c-1.3,2.4-2.8,4.2-2.8,6   c0,1.8,3,8,3,8s-1.1,1.8-4,3c0,0-3.7-10.5-3-14c0,0,0.3-2.7,2-6S37.6,11.5,37.6,11.5z"/>
	<path fill="#FBC02D" d="M15.2,12.2c0.2-1.3-1.9-1.5-2.5-0.7s-1.4,2-1.5,3c-0.1,1-0.4,4.9,0.7,7.4s4.1,5.3,4.1,7.9S14.2,42,14.2,42   c1.4,0,3.2,0.1,4.8-1.3c0-1.8,0.7-7.1,0.7-7.9c0.1-1.9,1.9-3.1,1.4-5.6L15.2,12.2z"/>
	<path fill="#FBC02D" d="M27,3h-1c0,0-11,0.5-11,12c0,7.2,4.1,8.3,6,12c1.9,3.7,0.9,9,6,9c0.1,0,0.5,0,0.6,0c5.1,0,4.5-6.3,6.4-10   c1.9-3.7,4-3.8,4-11C38,3.5,27,3,27,3z"/>
</g>
<path fill="#F57F17" d="M32.4,31c-0.2,1.2-0.4,2-0.4,2s-1.8,9-5,9c-2,0-4.3-9.3-4.3-9.3s0,0,0,0c0.6,1.9,1.6,3.3,4.3,3.3  c0.1,0,0.5,0,0.6,0C30.7,36,31.7,33.6,32.4,31z M40,15c0-1.2-0.1-2.2-0.3-3.2c-0.5-1-1.7-1-2.1-0.3c0,0,0,0,0,0  c0.3,1,0.4,2.2,0.4,3.5c0,7.2-2.1,7.3-4,11c-0.4,0.7-0.6,1.5-0.9,2.4C33,28.8,33,29,33,29c-0.2,1.1,0,3,0.5,5  c0.6-1.2,0.9-2.5,1.2-3.7c0.3-1.3,0.6-2.5,1.1-3.4c0.5-0.9,0.9-1.5,1.4-2.2C38.6,22.7,40,20.9,40,15z M15,15c0-1,0.1-1.8,0.2-2.6  l-0.1-0.2c0.1-0.9-0.9-1.3-1.7-1.1c-0.3,1.2-0.5,2.5-0.5,4c0,5.7,2.3,8.3,4.2,10.3c0.8,0.9,1.5,1.7,2,2.6c0.5,0.9,0.7,2,1,3.1  c0.5-1.1,1.2-2.2,0.9-3.8c0-0.1-0.1-0.2-0.1-0.2C19.1,23.3,15,22.2,15,15z"/>
<path fill="#6D4C41" d="M27.6,23.5c-0.4-0.6-1.3-0.7-1.9-0.3c-0.5,0.3-0.6,0.9-0.7,1.5c-0.2,2,0.4,4.1,1.6,5.8  c0.1,0.2,0.3,0.4,0.5,0.5c0.5,0.2,1-0.3,1.2-0.7c0.5-0.9,0.7-2,0.6-3.1C28.6,24.7,27.6,23.5,27.6,23.5z"/>
<path fill="#F57F17" d="M26,20c0,0.6-0.4,1-1,1s-1-0.4-1-1s0.4-1,1-1S26,19.4,26,20z M28,19c-0.6,0-1,0.4-1,1s0.4,1,1,1s1-0.4,1-1  S28.6,19,28,19z"/>
<path fill="#4E342E" d="M22,16c0,0.6-0.4,1-1,1s-1-0.4-1-1c0-0.6,0.4-1,1-1S22,15.4,22,16z M30,14c-0.6,0-1,0.4-1,1s0.4,1,1,1  s1-0.4,1-1S30.6,14,30,14z"/>
</svg>