<svg xmlns="http://www.w3.org/2000/svg" viewBox="0 0 36 44" width="36" height="44">
  <path d="M16 27S5.7 29.4 3 33C.3 36.6 0 44 0 44h36c0-9.8-1.7-10.8-10-17H16z" fill="#4e342e"/>
  <g fill="#fbc02d">
    <path d="M31.6 11.5c.4-.7 1.6-.7 2.1.3.2.3 1.3 7.8 1.3 9.2 0 1.4.1 2.6-1.2 5S31 30.2 31 32c0 1.8 3 8 3 8s-1.1 1.8-4 3c0 0-3.7-10.5-3-14 0 0 .3-2.7 2-6s2.6-11.5 2.6-11.5zm-22.4.7c.2-1.3-1.9-1.5-2.5-.7-.6.8-1.4 2-1.5 3-.1 1-.4 4.9.7 7.4s4.1 5.3 4.1 7.9C10 32.4 8.2 42 8.2 42c1.4 0 3.2.1 4.8-1.3 0-1.8.7-7.1.7-7.9.1-1.9 1.9-3.1 1.4-5.6l-5.9-15z"/>
    <path d="M21 3h-1S9 3.5 9 15c0 7.2 4.1 8.3 6 12 1.9 3.7.9 9 6 9h.6c5.1 0 4.5-6.3 6.4-10 1.9-3.7 4-3.8 4-11C32 3.5 21 3 21 3z"/>
  </g>
  <path d="M26.4 31c-.2 1.2-.4 2-.4 2s-1.8 9-5 9c-2 0-4.3-9.3-4.3-9.3.6 1.9 1.6 3.3 4.3 3.3h.6c3.1 0 4.1-2.4 4.8-5zM34 15c0-1.2-.1-2.2-.3-3.2-.5-1-1.7-1-2.1-.3.3 1 .4 2.2.4 3.5 0 7.2-2.1 7.3-4 11-.4.7-.6 1.5-.9 2.4-.1.4-.1.6-.1.6-.2 1.1 0 3 .5 5 .6-1.2.9-2.5 1.2-3.7.3-1.3.6-2.5 1.1-3.4.5-.9.9-1.5 1.4-2.2 1.4-2 2.8-3.8 2.8-9.7zM9 15c0-1 .1-1.8.2-2.6l-.1-.2c.1-.9-.9-1.3-1.7-1.1-.3 1.2-.5 2.5-.5 4 0 5.7 2.3 8.3 4.2 10.3.8.9 1.5 1.7 2 2.6.5.9.7 2 1 3.1.5-1.1 1.2-2.2.9-3.8 0-.1-.1-.2-.1-.2C13.1 23.3 9 22.2 9 15z" fill="#f57f17"/>
  <path d="M21.6 23.5c-.4-.6-1.3-.7-1.9-.3-.5.3-.6.9-.7 1.5-.2 2 .4 4.1 1.6 5.8.1.2.3.4.5.5.5.2 1-.3 1.2-.7.5-.9.7-2 .6-3.1-.3-2.5-1.3-3.7-1.3-3.7z" fill="#6d4c41"/>
  <path d="M20 20c0 .6-.4 1-1 1s-1-.4-1-1 .4-1 1-1 1 .4 1 1zm2-1c-.6 0-1 .4-1 1s.4 1 1 1 1-.4 1-1-.4-1-1-1z" fill="#f57f17"/>
  <path d="M16 16c0 .6-.4 1-1 1s-1-.4-1-1 .4-1 1-1 1 .4 1 1zm8-2c-.6 0-1 .4-1 1s.4 1 1 1 1-.4 1-1-.4-1-1-1z" fill="#4e342e"/>
</svg>
