<?xml version="1.0" encoding="utf-8"?><!-- Generator: Adobe Illustrator 19.1.1, SVG Export Plug-In . SVG Version: 6.00 Build 0)  --><svg xmlns="http://www.w3.org/2000/svg" xmlns:xlink="http://www.w3.org/1999/xlink" version="1.1" x="0px" y="0px" viewBox="0 0 48 48" enable-background="new 0 0 48 48" xml:space="preserve" width="48" height="48">
<polygon fill="#FF9800" points="24,39 19,33 19,27 29,27 29,33 "/>
<path fill="#FFA726" d="M35,21c0,1.1-0.9,2-2,2c-1.1,0-2-0.9-2-2s0.9-2,2-2C34.1,19,35,19.9,35,21 M17,21c0-1.1-0.9-2-2-2  c-1.1,0-2,0.9-2,2s0.9,2,2,2C16.1,23,17,22.1,17,21"/>
<path fill="#FFB74D" d="M33,15c0-7.6-18-5-18,0v7c0,5,4,9,9,9c5,0,9-4,9-9V15z"/>
<path fill="#8D6E63" d="M24,6c-6.1,0-10,4.9-10,11v2.3l2,1.7v-5l12-4l4,4v5l2-1.7V17c0-4-1-8-6-9l-1-2H24z"/>
<polygon fill="#FFFFFF" points="24,45 19,33 24,34 29,33 "/>
<polygon fill="#E65100" points="23,37 22.3,41.5 24,45.5 25.7,41.5 25,37 26,36 24,34 22,36 "/>
<path fill="#37474F" d="M29,33L29,33l-5,12l-5-12c0,0-11,2-11,13h33C41,35,29,33,29,33"/>
<path fill="#37474F" d="M36.8,13c-0.4,0-1.4,0.2-2.8,0.4V9.9C34,4.8,29.7,2,24.4,2h-0.7C18.3,2,14,4.8,14,9.9v3.5  c-1.4-0.2-2.4-0.4-2.8-0.4C10,13,10,14,10,14s1,3,6.3,3c4.1,0,2.4,0,7.7,0s4.1,0,8.3,0c4.7,0,5.7-3,5.7-3S38,13,36.8,13z"/>
<path fill="#78909C" d="M24,14.5c3.5,0,7.4-0.6,10-1.1V12H14v1.4C16.6,13.9,20.5,14.5,24,14.5z"/>
<path fill="#FFFFFF" stroke="#795548" stroke-width="2" stroke-miterlimit="10" d="M26,13c0,0-3,2.3-2,7"/>
<path fill="#8BC34A" d="M23,16.9c0,0-0.4-4.4-5-3C18.5,17.8,23,16.9,23,16.9z"/>
<path fill="#689F38" d="M24,20c-0.1-0.1-0.2-0.2-0.3-0.2c-0.1-0.1-0.2-0.1-0.3-0.2c0,0,0,0,0,0v0c-3.6-2-5.8,1.2-5.2,4.4  c0.6,3,3.3,5.8,5.2,4.8v0c0,0,0,0,0,0c0.1,0,0.1-0.1,0.2-0.1c0,0,0,0,0,0c0,0,0.1-0.1,0.1-0.1c0,0,0,0,0.1-0.1c0,0,0.1-0.1,0.1-0.1  c0.1-0.1,0.1-0.1,0.2-0.2c1.9,2.2,5.3-0.9,5.9-4.3C30.5,20.6,28,17.3,24,20z"/>
</svg>