<svg xmlns="http://www.w3.org/2000/svg" viewBox="0 0 35.999999 44" width="36" height="44">
  <path fill="#ff9800" d="M22.5 31l-5 6-5-6v-6h10"/>
  <path d="M28.5 19c0 1.1-.9 2-2 2s-2-.9-2-2 .9-2 2-2 2 .9 2 2m-18 0c0-1.1-.9-2-2-2s-2 .9-2 2 .9 2 2 2 2-.9 2-2" fill="#ffa726"/>
  <path d="M26.5 13c0-7.6-18-5-18 0v7c0 5 4 9 9 9s9-4 9-9v-7z" fill="#ffb74d"/>
  <path d="M17.5 4c-6.1 0-10 4.9-10 11v2.3l2 1.7v-5l12-4 4 4v5l2-1.7V15c0-4-1-8-6-9l-1-2h-3z" fill="#8d6e63"/>
  <path fill="#fff" d="M22.5 31l-5 12-5-12 5 1"/>
  <path fill="#e65100" d="M19.2 39.5l-.7-4.5 1-1-2-2-2 2 1 1-.7 4.5 1.7 4"/>
  <path d="M22.5 31l-5 12-5-12s-11 2-11 13h33c0-11-12-13-12-13m7.8-20c-.4 0-1.4.2-2.8.4V7.9c0-5.1-4.3-7.9-9.6-7.9h-.7c-5.4 0-9.7 2.8-9.7 7.9v3.5c-1.4-.2-2.4-.4-2.8-.4-1.2 0-1.2 1-1.2 1s1 3 6.3 3h16c4.7 0 5.7-3 5.7-3s0-1-1.2-1z" fill="#37474f"/>
  <path d="M17.5 12.5c3.5 0 7.4-.6 10-1.1V10h-20v1.4c2.6.5 6.5 1.1 10 1.1z" fill="#78909c"/>
  <path d="M19.5 11s-3 2.3-2 7" stroke-miterlimit="10" fill="#fff" stroke="#795548" stroke-width="2"/>
  <path d="M16.5 14.9s-.4-4.4-5-3c.5 3.9 5 3 5 3z" fill="#8bc34a"/>
  <path d="M17.5 18c-.1-.1-.2-.2-.3-.2-.1-.1-.2-.1-.3-.2-3.6-2-5.8 1.2-5.2 4.4.6 3 3.3 5.8 5.2 4.8.1 0 .1-.1.2-.1l.1-.1.1-.1.1-.1.2-.2c1.9 2.2 5.3-.9 5.9-4.3.5-3.3-2-6.6-6-3.9z" fill="#689f38"/>
</svg>
