<?xml version="1.0" encoding="utf-8"?><!-- Generator: Adobe Illustrator 18.1.1, SVG Export Plug-In . SVG Version: 6.00 Build 0)  --><svg xmlns="http://www.w3.org/2000/svg" xmlns:xlink="http://www.w3.org/1999/xlink" version="1.1" x="0px" y="0px" viewBox="0 0 48 48" enable-background="new 0 0 48 48" xml:space="preserve" width="48" height="48">
<path fill="#607D8B" d="M6,9h36c1.1,0,2,0.9,2,2v26c0,1.1-0.9,2-2,2H6c-1.1,0-2-0.9-2-2V11C4,9.9,4.9,9,6,9z"/>
<rect x="6" y="11" fill="#FFFFFF" width="36" height="26"/>
<rect x="6" y="11" fill="#F44336" width="14" height="14"/>
<rect x="21" y="11" fill="#FFEB3B" width="8" height="7"/>
<rect x="21" y="26" fill="#3F51B5" width="8" height="11"/>
<rect x="30" y="24" fill="#FFEB3B" width="12" height="13"/>
<rect x="30" y="19" fill="#3F51B5" width="7" height="4"/>
<rect x="38" y="11" fill="#F44336" width="4" height="4"/>
<rect x="20" y="11" fill="#607D8B" width="1" height="26"/>
<rect x="29" y="11" fill="#607D8B" width="1" height="26"/>
<rect x="6" y="25" fill="#607D8B" width="24" height="1"/>
<rect x="30" y="23" fill="#607D8B" width="12" height="1"/>
<rect x="21" y="18" fill="#607D8B" width="17" height="1"/>
<rect x="37" y="11" fill="#607D8B" width="1" height="13"/>
<rect x="37" y="15" fill="#607D8B" width="5" height="1"/>
</svg>