<?xml version="1.0" encoding="utf-8"?><!-- Generator: Adobe Illustrator 19.1.1, SVG Export Plug-In . SVG Version: 6.00 Build 0)  --><svg xmlns="http://www.w3.org/2000/svg" xmlns:xlink="http://www.w3.org/1999/xlink" version="1.1" x="0px" y="0px" viewBox="0 0 48 48" enable-background="new 0 0 48 48" xml:space="preserve" width="48" height="48">
<path fill="#388E3C" d="M39,43H9c-2.2,0-4-1.8-4-4V9c0-2.2,1.8-4,4-4h30c2.2,0,4,1.8,4,4v30C43,41.2,41.2,43,39,43z"/>
<rect x="5" y="14" fill="#2E7D32" width="21" height="11"/>
<path fill="#1B5E20" d="M13,13H8.5V5H13V13z M22,5h-4.5v8H22V5z M31,5h-5v8h5V5z"/>
<path fill="#FF3D00" d="M22,19c0,0-14.3,2.8-17,12v8c0,2.2,1.8,4,4,4h30c2.2,0,4-1.8,4-4V19H22z"/>
<path fill="#FFAB00" d="M17,14c0,0-10,0.5-10,14c0,9.9,5,14,5,14s1.8-12,8-12V14H17z"/>
<path fill="#FFCCBC" d="M39,43c2.2,0,4-1.8,4-4v-4.2c-0.6-0.5-1.3-0.8-2-0.8c-4.6-0.3-5-9-5-9c-2.9,4-13.9,4-13.9,4v14H39z"/>
<path fill="#FFECB3" d="M41,34c-3.9,0-3.8,7-9,7c-5.8,0-3.5-8.7-9.4-10.6c0.2-0.2,0.4-0.5,0.4-0.9c0-0.1,0-0.3-0.1-0.4  C29.3,29.7,36,28.2,39,20C38.8,11.1,25.8,7,21.5,7l0,0H20h-0.5C18.1,7,17,8.1,17,9.5s1.1,2.5,2.5,2.5L19,14c-4.2,0-5.8,3.2-6,7.3  c0.1,3.7,2.8,6.7,6.2,7.5c1,0.2,1.8,0.3,1.8,1.2c0,0.2-1.9-0.1-1.9,0.1C12.2,31,11,43,11,43h28c2.2,0,4-1.8,4-4v-4.6  C42.4,34.1,41.7,34,41,34z"/>
<g>
	<path fill="#37474F" d="M5,31c0.4-1.4,1.1-2.7,2-3.8c0.1-2.5,0.5-4.5,1.2-6.2H5V31z"/>
	<path fill="#37474F" d="M39,5h-4v7.4c2,1.7,3.6,3.9,3.9,6.6H43V9C43,6.8,41.2,5,39,5z"/>
	<path fill="#37474F" d="M27,14.3V16c0,0.5,0.3,0.9,0.8,1l4,1c0.1,0,0.2,0,0.2,0c0.4,0,0.9-0.3,1-0.8s-0.2-1.1-0.7-1.2L29,15.2v-0.9   c0-1.3-1-2.3-2.3-2.3h-4.1l0.1-0.1c0.2-0.3,0.4-0.7,0.5-1.1c0.1-0.4,0.1-0.8,0-1.2s-0.2-0.7-0.4-1C22.5,8.2,22,8,22,8l0,0   c0,0,0.1,0.3,0.2,0.8s0.1,1.2-0.1,1.8c-0.1,0.5-0.3,1-0.5,1.4H9H8H5v2h3h1h17.7C26.9,14,27,14.1,27,14.3z"/>
	<path fill="#37474F" d="M38.2,21.8c-0.1,0.4-0.4,0.7-0.7,1.2c-0.3,0.4-0.5,0.9-0.9,1.3s-0.7,0.9-1.2,1.3s-0.9,0.8-1.5,1.2   c-0.3,0.2-0.5,0.4-0.8,0.5l-0.9,0.4c-0.6,0.3-1.2,0.5-1.8,0.7c-0.6,0.2-1.2,0.3-1.8,0.5c-0.6,0.1-1.2,0.2-1.7,0.2   c-0.6,0.1-1.1,0.1-1.6,0.1c-1,0-3.1-0.2-3.1-0.2c-0.5-0.1-1.1,0.3-1.1,0.8c0,0,1.8,0.3,1.8,1.2c0.6,0,1.5,0,2.6-0.1   c0.5-0.1,1.1-0.1,1.7-0.2s1.2-0.3,1.8-0.4c0.6-0.2,1.3-0.4,1.9-0.7c0.6-0.3,1.3-0.6,1.9-1l0.9-0.6c0.3-0.2,0.5-0.4,0.8-0.6   c0.6-0.4,1-0.9,1.4-1.4c0.5-0.4,0.8-1,1.1-1.5c0.4-0.5,0.6-1,0.8-1.4c0.2-0.5,0.5-0.9,0.6-1.3s0.2-0.7,0.3-1C38.9,20.3,39,20,39,20   s-0.1,0.3-0.4,0.8C38.5,21.1,38.4,21.4,38.2,21.8z"/>
	<path fill="#37474F" d="M21.9,23.3c0.2-0.4,0.4-0.9,0.6-1.4c0.1-0.5,0.2-1,0.2-1.4c0-0.5,0-0.9-0.1-1.3C22.4,18.5,22,18,22,18l0,0   c0,0,0,0.5,0,1.2c-0.1,0.7-0.2,1.6-0.4,2.5c-0.1,0.4-0.2,0.9-0.4,1.3c-0.1,0.2-0.2,0.4-0.2,0.6c-0.1,0.2-0.2,0.4-0.3,0.5   c-0.2,0.3-0.3,0.5-0.5,0.7C20,24.9,20,25,20,25l0,0c0,0,0.1,0,0.3-0.2c0.2-0.1,0.5-0.3,0.8-0.6C21.4,24,21.7,23.7,21.9,23.3z"/>
</g>
<path fill="#D84315" d="M20,31c-0.3,0-0.5-0.1-0.7-0.3C19.1,30.5,19,30.3,19,30s0.1-0.5,0.3-0.7c0.4-0.4,1-0.4,1.4,0  c0.2,0.2,0.3,0.5,0.3,0.7s-0.1,0.5-0.3,0.7C20.5,30.9,20.3,31,20,31z M32.1,42L32.1,42L32.1,42L32.1,42c0.6,0,1-0.5,1-1l0,0l0,0l0,0  c0.2,0.5,0.8,0.7,1.3,0.5l0,0c0.5-0.2,0.7-0.8,0.5-1.3l0,0l0,0l0,0c0.4,0.4,1,0.4,1.4,0l0,0c0.4-0.4,0.4-1,0-1.4l0,0  c0.5,0.3,1,0.1,1.3-0.3l0,0c0.3-0.4,0.2-1-0.2-1.3l0,0c0.4,0.2,1,0.1,1.3-0.3l0,0c0.3-0.4,0.2-0.9-0.1-1.2l0,0  c0.4,0.2,0.8,0.2,1.2-0.1l0,0c0.4-0.3,0.5-1,0.1-1.4l0,0c-0.3-0.4-1-0.5-1.4-0.1l0,0c-0.4,0.3-0.5,1-0.1,1.4l0,0l0,0l0,0  c-0.4-0.3-1-0.1-1.3,0.3l0,0c-0.3,0.4-0.2,1,0.2,1.3l0,0c-0.4-0.2-1-0.1-1.3,0.3l0,0c-0.3,0.4-0.2,0.9,0.1,1.2l0,0  c-0.4-0.2-0.9-0.1-1.2,0.2l0,0c-0.3,0.3-0.3,0.8-0.2,1.1l0,0c-0.3-0.3-0.7-0.4-1.1-0.2l0,0c-0.4,0.2-0.6,0.5-0.6,0.9l0,0  c-0.2-0.4-0.5-0.6-1-0.6l0,0c-0.4,0-0.7,0.2-0.9,0.6l0,0c0-0.4-0.2-0.7-0.6-0.9l0,0c-0.3-0.2-0.7-0.1-1,0.1l0,0  c0.2-0.3,0.2-0.7,0-1.1l0,0c-0.3-0.4-0.7-0.5-1.1-0.4l0,0c0.4-0.3,0.5-0.8,0.3-1.2l0,0c-0.2-0.5-0.7-0.7-1.2-0.6l0,0  c0.4-0.2,0.6-0.8,0.5-1.2l0,0l0,0l0,0c-0.2-0.5-0.7-0.8-1.2-0.6l0,0c0.4-0.3,0.6-0.8,0.4-1.3l0,0l0,0l0,0c-0.2-0.5-0.8-0.7-1.3-0.5  l0,0c0.4-0.4,0.5-1,0.1-1.4l0,0l0,0l0,0c-0.3-0.4-1-0.5-1.4-0.2l0,0c0.3-0.5,0.1-1.1-0.4-1.4l0,0l0,0l0,0c-0.5-0.3-1.1-0.1-1.4,0.3  l0,0c0.1-0.5-0.3-1-0.8-1.2l0,0l0,0l0,0c-0.5-0.1-1.1,0.2-1.2,0.8l0,0c-0.1,0.5,0.2,1.1,0.8,1.2l0,0c0.4,0.1,0.8-0.1,1.1-0.4l0,0  c-0.1,0.4,0.1,0.8,0.5,1l0,0c0.4,0.2,0.8,0.2,1.1-0.1l0,0c-0.2,0.4-0.2,0.8,0.1,1.1l0,0c0.3,0.4,0.8,0.5,1.2,0.3l0,0  c-0.3,0.3-0.4,0.8-0.2,1.2l0,0c0.2,0.4,0.7,0.6,1.2,0.5l0,0c-0.4,0.2-0.6,0.7-0.4,1.2l0,0c0.2,0.5,0.7,0.8,1.2,0.6l0,0  c-0.5,0.2-0.7,0.8-0.5,1.3l0,0c0.2,0.5,0.7,0.7,1.2,0.6l0,0c-0.4,0.3-0.5,0.9-0.2,1.4l0,0c0.3,0.5,0.9,0.6,1.4,0.3l0,0l0,0l0,0l0,0  l0,0c-0.2,0.5,0,1.1,0.5,1.3l0,0c0.5,0.3,1.1,0,1.3-0.5l0,0l0,0C31.1,41.6,31.5,42,32.1,42z M41.7,34.7c0.2-0.2,0.3-0.4,0.3-0.7  s-0.1-0.5-0.3-0.7c-0.4-0.4-1-0.4-1.4,0C40.1,33.5,40,33.7,40,34s0.1,0.5,0.3,0.7S40.8,35,41,35S41.5,34.9,41.7,34.7z"/>
<path fill="#D32F2F" d="M32.1,14c0,0,0.6,0.5,1,1.2c0.1,0.2,0.2,0.4,0.2,0.6c0.1,0.2,0.1,0.5,0.2,0.7c0.1,0.5,0,1-0.1,1.6  c-0.1,0.5-0.4,1-0.7,1.5c-0.1,0.2-0.3,0.4-0.5,0.6s-0.4,0.3-0.6,0.4c-0.4,0.2-0.8,0.4-1,0.4c-0.3,0.1-0.5,0.1-0.5,0.1L29.9,21  c0,0,0.1-0.1,0.2-0.3c0.1-0.2,0.3-0.4,0.4-0.7c0.1-0.1,0.2-0.3,0.2-0.5c0.1-0.2,0.2-0.4,0.2-0.6c0.2-0.4,0.3-0.8,0.4-1.3  c0.2-0.9,0.4-1.8,0.4-2.5c0.1-0.7,0.1-1.1,0.1-1.1H32.1z"/>
<circle fill="#D84315" cx="20" cy="30" r="1"/>
</svg>