<?xml version="1.0" encoding="utf-8"?><!-- Generator: Adobe Illustrator 15.0.0, SVG Export Plug-In . SVG Version: 6.00 Build 0)  --><!DOCTYPE svg PUBLIC "-//W3C//DTD SVG 1.1//EN" "http://www.w3.org/Graphics/SVG/1.1/DTD/svg11.dtd"><svg xmlns="http://www.w3.org/2000/svg" xmlns:xlink="http://www.w3.org/1999/xlink" version="1.1" x="0px" y="0px" width="48" height="48" viewBox="0 0 48 48" enable-background="new 0 0 48 48" xml:space="preserve">
<path fill="#0288D1" d="M42,37c0,2.762-2.238,5-5,5H11c-2.761,0-5-2.238-5-5V11c0-2.762,2.239-5,5-5h26c2.762,0,5,2.238,5,5V37z"/>
<path fill="#FFFFFF" d="M33.185,27.358c2.081,1.95,2.513,2.902,2.583,3.02c0.861,1.446-0.953,1.561-0.953,1.561l-3.473,0.048  c0,0-0.748,0.149-1.73-0.532c-1.299-0.9-3.075-3.243-4.029-2.939c-0.968,0.31-0.66,2.765-0.66,2.765s0.006,0.301-0.214,0.542  C24.47,32.078,24,31.981,24,31.981h-1c0,0-3.708,0.015-6.729-3.164c-3.293-3.467-6.049-9.944-6.049-9.944s-0.167-0.413,0.014-0.631  C10.443,17.995,11,18,11,18h3.714c0,0,0.349,0.048,0.6,0.236c0.208,0.15,0.323,0.441,0.323,0.441s0.448,1.206,1.244,2.595  c1.551,2.712,2.274,3.305,2.801,3.012c0.768-0.423,0.537-3.829,0.537-3.829s0.015-1.241-0.387-1.79  c-0.311-0.43-0.895-0.554-1.153-0.59c-0.211-0.023,0.132-0.516,0.578-0.736c0.669-0.329,1.851-0.35,3.246-0.336  C23.59,17.015,24,17,24,17c1.281,0.313,0.846,1.522,0.846,4.416c0,0.929-0.165,2.234,0.496,2.664  c0.286,0.188,1.311,0.216,3.05-2.772c0.826-1.418,1.481-2.751,1.481-2.751s0.138-0.298,0.346-0.425  C30.436,18.001,30.725,18,30.725,18l3.91,0.018c0,0,1.176-0.145,1.365,0.394c0.201,0.562-0.48,1.546-2.076,3.698  C31.299,25.646,31.008,25.317,33.185,27.358z"/>
</svg>